<svg width="456" height="94" viewBox="0 0 456 94" fill="none" xmlns="http://www.w3.org/2000/svg">
    <path
        d="M0 94V0.909088H65.4545V21.2727H25.2727V37.2727H61.4545V57.6364H25.2727V94H0ZM87.3068 94H60.0341L90.7614 0.909088H125.307L156.034 94H128.761L108.398 26.5455H107.67L87.3068 94ZM82.2159 57.2727H133.489V76.1818H82.2159V57.2727ZM200.818 94H165V0.909088H200.455C210.03 0.909088 218.303 2.77273 225.273 6.5C232.273 10.197 237.667 15.5303 241.455 22.5C245.273 29.4394 247.182 37.7576 247.182 47.4545C247.182 57.1515 245.288 65.4848 241.5 72.4545C237.712 79.3939 232.348 84.7273 225.409 88.4545C218.47 92.1515 210.273 94 200.818 94ZM190.273 72.5455H199.909C204.515 72.5455 208.439 71.803 211.682 70.3182C214.955 68.8333 217.439 66.2727 219.136 62.6364C220.864 59 221.727 53.9394 221.727 47.4545C221.727 40.9697 220.848 35.9091 219.091 32.2727C217.364 28.6364 214.818 26.0758 211.455 24.5909C208.121 23.1061 204.03 22.3636 199.182 22.3636H190.273V72.5455ZM258.875 94V0.909088H284.148V37.2727H317.602V0.909088H342.875V94H317.602V57.6364H284.148V94H258.875ZM380.148 0.909088V94H354.875V0.909088H380.148ZM392.125 94V0.909088H417.398V73.6364H455.034V94H392.125Z"
        fill="#D2B48B" />
</svg>