<svg width="530" height="97" viewBox="0 0 530 97" fill="none" xmlns="http://www.w3.org/2000/svg">
    <path
        d="M0 95V1.90909H25.2727V39.5455H26.5455L54.5455 1.90909H84L52.5455 43.3636L84.7273 95H54.5455L33.6364 60.0909L25.2727 71V95H0ZM91.5 95V1.90909H116.773V38.2727H150.227V1.90909H175.5V95H150.227V58.6364H116.773V95H91.5ZM277.682 48.4545C277.682 58.8182 275.667 67.5606 271.636 74.6818C267.606 81.7727 262.167 87.1515 255.318 90.8182C248.47 94.4545 240.833 96.2727 232.409 96.2727C223.924 96.2727 216.258 94.4394 209.409 90.7727C202.591 87.0758 197.167 81.6818 193.136 74.5909C189.136 67.4697 187.136 58.7576 187.136 48.4545C187.136 38.0909 189.136 29.3636 193.136 22.2727C197.167 15.1515 202.591 9.77272 209.409 6.13636C216.258 2.46969 223.924 0.63636 232.409 0.63636C240.833 0.63636 248.47 2.46969 255.318 6.13636C262.167 9.77272 267.606 15.1515 271.636 22.2727C275.667 29.3636 277.682 38.0909 277.682 48.4545ZM251.682 48.4545C251.682 42.8788 250.939 38.1818 249.455 34.3636C248 30.5151 245.833 27.6061 242.955 25.6364C240.106 23.6364 236.591 22.6364 232.409 22.6364C228.227 22.6364 224.697 23.6364 221.818 25.6364C218.97 27.6061 216.803 30.5151 215.318 34.3636C213.864 38.1818 213.136 42.8788 213.136 48.4545C213.136 54.0303 213.864 58.7424 215.318 62.5909C216.803 66.4091 218.97 69.3182 221.818 71.3182C224.697 73.2879 228.227 74.2727 232.409 74.2727C236.591 74.2727 240.106 73.2879 242.955 71.3182C245.833 69.3182 248 66.4091 249.455 62.5909C250.939 58.7424 251.682 54.0303 251.682 48.4545ZM289.375 95V1.90909H314.648V74.6364H352.284V95H289.375ZM386.682 95H359.409L390.136 1.90909H424.682L455.409 95H428.136L407.773 27.5455H407.045L386.682 95ZM381.591 58.2727H432.864V77.1818H381.591V58.2727ZM464.375 95V1.90909H529.83V22.2727H489.648V38.2727H525.83V58.6364H489.648V95H464.375Z"
        fill="#D2B48B" />
</svg>